# xmcd CD database file
#
# Track frame offsets:
#	150
#	19914
#	40037
#	54157
#	65233
#	80700
#	97240
#	108519
#	130236
#	148187
#	164222
#	179850
#	203472
#	223669
#	235972
#
# Disc length: 3387 seconds
#
# Revision: 0
# Processed by: cddbd v1.5.1PL2 Copyright (c) Steve Scherf et al.
# Submitted via: CDex 1.51
#
DISCID=eb0d390f
DTITLE=Henry Eye - That's me
DYEAR=2006
DGENRE=Country
TTITLE0=I left my boots in Oklahoma
TTITLE1=Not for you
TTITLE2=Riding on my painted Pony
TTITLE3=My Famiily and me
TTITLE4=Whiskey begore breakfast
TTITLE5=That's me
TTITLE6=Guardian Angel
TTITLE7=King of Country
TTITLE8=Vacation in the USA
TTITLE9=Once opun the time 
TTITLE10=Swinging Doors
TTITLE11=Lonely Heart
TTITLE12=The next country Song
TTITLE13=Is there any Chance to take you home
TTITLE14=Back home
EXTD=YEAR: 2006
EXTT0=
EXTT1=
EXTT2=
EXTT3=
EXTT4=
EXTT5=
EXTT6=
EXTT7=
EXTT8=
EXTT9=
EXTT10=
EXTT11=
EXTT12=
EXTT13=
EXTT14=
PLAYORDER=
